HIERARCHY
ROOT Hips
{
  OFFSET 0 89.5177 0.535
  CHANNELS 6 Xposition Yposition Zposition Zrotation Xrotation Yrotation
  JOINT Spine
  {
    OFFSET 12.0259 -0.162855 1.69034e-005
    CHANNELS 3 Zrotation Xrotation Yrotation
    JOINT Spine1
    {
      OFFSET 15.3169 -0.0121922 0
      CHANNELS 3 Zrotation Xrotation Yrotation
      JOINT Spine2
      {
        OFFSET 15.3176 -0.0121908 0
        CHANNELS 3 Zrotation Xrotation Yrotation
        JOINT Neck
        {
          OFFSET 19.9142 1.56338 0
          CHANNELS 3 Zrotation Xrotation Yrotation
          JOINT Head
          {
            OFFSET 6.92651 0 0
            CHANNELS 3 Zrotation Xrotation Yrotation
            End Site
            {
              OFFSET 20.7666 0 0
            }
          }
          JOINT LeftShoulder
          {
            OFFSET -6.20654 0.708824 7.28219
            CHANNELS 3 Zrotation Xrotation Yrotation
            JOINT LeftArm
            {
              OFFSET 14.108 0 -1.52588e-005
              CHANNELS 3 Zrotation Xrotation Yrotation
              JOINT LeftForeArm
              {
                OFFSET 28.5802 0 0
                CHANNELS 3 Zrotation Xrotation Yrotation
                JOINT LeftHand
                {
                  OFFSET 27.092 0 0
                  CHANNELS 3 Zrotation Xrotation Yrotation
                  End Site
                  {
                    OFFSET 9.55928 -0.186424 0.145352
                  }
                }
              }
            }
          }
          JOINT RightShoulder
          {
            OFFSET -6.20654 0.708866 -7.28218
            CHANNELS 3 Zrotation Xrotation Yrotation
            JOINT RightArm
            {
              OFFSET 14.108 0 1.52588e-005
              CHANNELS 3 Zrotation Xrotation Yrotation
              JOINT RightForeArm
              {
                OFFSET 28.5802 0 0
                CHANNELS 3 Zrotation Xrotation Yrotation
                JOINT RightHand
                {
                  OFFSET 27.092 0 0
                  CHANNELS 3 Zrotation Xrotation Yrotation
                  End Site
                  {
                    OFFSET 9.55929 -0.186417 -0.145354
                  }
                }
              }
            }
          }
        }
      }
    }
  }
  JOINT LeftUpLeg
  {
    OFFSET 0.005 -0.535 8.837
    CHANNELS 3 Zrotation Xrotation Yrotation
    JOINT LeftLeg
    {
      OFFSET 39.9035 0 0
      CHANNELS 3 Zrotation Xrotation Yrotation
      JOINT LeftFoot
      {
        OFFSET 39.6689 0 0
        CHANNELS 3 Zrotation Xrotation Yrotation
        JOINT LeftToe
        {
          OFFSET 10.1624 13.6296 0
          CHANNELS 3 Zrotation Xrotation Yrotation
          End Site
          {
            OFFSET 8.38147 0 0
          }
        }
      }
    }
  }
  JOINT RightUpLeg
  {
    OFFSET 0.005 -0.535 -8.837
    CHANNELS 3 Zrotation Xrotation Yrotation
    JOINT RightLeg
    {
      OFFSET 39.9035 0 0
      CHANNELS 3 Zrotation Xrotation Yrotation
      JOINT RightFoot
      {
        OFFSET 39.6689 0 0
        CHANNELS 3 Zrotation Xrotation Yrotation
        JOINT RightToe
        {
          OFFSET 10.1624 13.6296 0
          CHANNELS 3 Zrotation Xrotation Yrotation
          End Site
          {
            OFFSET 8.38147 0 0
          }
        }
      }
    }
  }
}
MOTION
Frames:	10
Frame Time:	0.0333333
340.225 88.7124 115.125 -67.4718 -62.1122 -157.816 3.806 -1.27691 -0.785004 7.59709 -2.60253 -1.48392 7.59709 -2.60253 -1.48393 -8.30748e-012 -9.0191e-006 -5.27751e-005 -5.07259 17.8378 -7.27588 -178.605 -3.7319 -69.4918 -16.2108 10.1868 59.2547 -61.4799 -3.18055e-015 -3.18055e-015 -60.6637 -47.9343 -58.8865 -178.341 6.88668 76.4217 -21.8067 -10.8883 -66.7128 -106.296 -2.13693e-015 -1.59028e-015 -39.6064 47.0749 42.2694 -1.66975 34.0121 -164.908 -24.3153 1.59028e-015 1.19271e-015 8.45598 0.0338633 -2.21734 90 5.96354e-016 -3.18055e-015 6.33509 -33.355 172.797 -17.8206 -6.36111e-015 -1.59028e-015 15.5323 0.979171 -0.377411 90 -7.95139e-016 -3.18055e-015 
342.576 88.6387 116.331 -69.5764 -58.9885 -161.207 3.74771 -1.38202 -0.631958 7.48331 -2.80184 -1.17258 7.48331 -2.80184 -1.17258 -8.30828e-012 -9.0191e-006 -5.27751e-005 -4.57256 11.1925 -4.84869 -178.583 -3.75563 -69.3106 -14.5299 9.88648 59.0323 -59.8734 0 3.18055e-015 -61.5217 -47.4473 -59.6452 -178.26 7.13803 76.2589 -22.7704 -10.6182 -66.4955 -106.115 -2.78299e-015 -0 -39.3318 47.0398 41.9682 -4.88264 34.8415 -160.287 -27.3216 1.59028e-015 -1.59028e-015 7.88478 -0.912595 -1.18691 90 1.78906e-015 1.59028e-015 9.1629 -30.7125 176.78 -15.4529 0 -0 14.9608 0.435595 -0.451999 90 -3.97569e-016 -0 
344.99 88.5341 117.622 -71.5543 -55.2132 -164.28 3.66426 -1.41322 -0.567957 7.31775 -2.85932 -1.04474 7.31775 -2.85932 -1.04475 -8.30748e-012 -9.0191e-006 -5.27751e-005 -3.38497 5.66258 -2.47854 -178.598 -3.73686 -69.4224 -12.0161 9.43905 58.9693 -57.4933 -1.27222e-014 -9.54166e-015 -62.5924 -46.6015 -60.5043 -178.21 7.27159 76.1298 -23.6865 -10.4263 -66.3709 -105.966 -2.38542e-015 -3.18055e-015 -39.1994 47.0091 41.8389 -8.09787 34.9544 -155.839 -31.1961 3.18055e-015 -1.98785e-015 6.91367 -2.63082 0.960014 90 -1.98785e-016 1.59028e-015 11.4241 -27.2772 -179.834 -13.3311 6.36111e-015 1.59028e-015 14.1984 0.149737 -0.375342 90 0 -6.36111e-015 
347.321 88.3594 118.892 -73.149 -51.1084 -166.736 3.58534 -1.43436 -0.586734 7.15925 -2.90208 -1.08295 7.15925 -2.90208 -1.08296 -8.30828e-012 -9.0191e-006 -5.27751e-005 -1.8315 1.51997 -0.345075 -178.616 -3.71487 -69.5485 -9.28575 9.29334 58.5365 -54.6941 -6.36111e-015 -6.36111e-015 -63.9082 -45.4997 -61.56 -178.134 7.5036 75.9949 -24.6949 -10.1969 -66.227 -105.836 -3.18055e-015 -0 -38.9637 47.2654 41.7145 -10.5914 33.9279 -152.45 -35.6164 7.95139e-016 2.08724e-015 5.67253 -5.18915 4.62458 90 4.77083e-015 -1.59028e-015 13.351 -23.4828 -176.998 -11.3413 0 1.59028e-015 13.9614 -0.240467 -1.85637 90 1.21329e-020 -3.18055e-015 
349.336 88.2234 120.05 -74.7039 -46.9843 -168.751 3.48837 -1.48761 -0.631498 6.96373 -3.01033 -1.17172 6.96373 -3.01033 -1.17173 -8.30748e-012 -9.0191e-006 -5.27751e-005 -0.345571 -1.19738 1.13766 -178.555 -3.83116 -69.3109 -6.59759 9.01773 57.8074 -51.2162 -3.18055e-015 3.18055e-015 -65.1463 -44.223 -62.464 -177.997 7.99894 75.8923 -25.9515 -9.93684 -65.6727 -105.655 1.59028e-015 -3.18055e-015 -38.942 47.1383 41.6502 -11.1107 31.4079 -151.824 -39.1709 3.97569e-016 -7.95139e-016 4.64965 -8.24591 10.2094 90 -5.36719e-015 1.59028e-015 13.6637 -19.9989 -175.384 -11.2113 -3.18056e-015 -0 14.25 -0.730295 -3.05184 90 4.96962e-017 -3.18055e-015 
350.948 88.2105 121.011 -76.2524 -42.9752 -169.908 3.37485 -1.55891 -0.751473 6.73279 -3.15877 -1.41047 6.73279 -3.15877 -1.41048 -8.30669e-012 -9.0191e-006 -5.27751e-005 0.635767 -2.87745 1.90013 -178.527 -3.83501 -68.963 -4.17304 8.44219 57.2734 -46.6399 0 -0 -65.488 -43.0542 -62.3181 -177.909 8.37653 75.9273 -26.5975 -9.67946 -64.7954 -105.544 1.19271e-015 9.54166e-015 -38.6099 47.256 41.3637 -7.95612 25.9659 -155.715 -41.2602 3.18055e-015 1.59028e-015 5.59125 -7.47881 8.86558 90 9.93923e-015 1.59028e-015 12.0315 -16.7515 -175.525 -13.7042 -3.18056e-015 -3.97569e-016 15.7308 -1.1332 -2.04965 90 3.97569e-016 -0 
352.336 88.2891 121.677 -77.3996 -38.9589 -170.251 3.30721 -1.59565 -0.919962 6.59232 -3.24106 -1.74718 6.59232 -3.24107 -1.74719 -8.30907e-012 -9.0191e-006 -5.27751e-005 1.15278 -3.73787 2.28693 -178.551 -3.7809 -69.0078 -1.99566 7.60161 57.4864 -41.2941 -3.18055e-015 -0 -65.1542 -42.1327 -61.5259 -177.913 8.44578 76.0685 -26.4408 -9.57124 -63.8277 -105.388 4.37326e-015 -3.18055e-015 -38.8584 47.2117 41.655 -4.64171 19.6897 -161.003 -42.9217 -9.54166e-015 -6.36111e-015 7.26187 -4.4567 3.69972 90 -7.95139e-016 -3.18055e-015 11.1784 -13.6155 -176.04 -14.8979 -6.36111e-015 -0 16.6276 -1.48893 -1.42704 90 -3.97569e-016 3.18055e-015 
353.655 88.3912 122.131 -78.3808 -34.8987 -170.616 3.26327 -1.53406 -1.03083 6.50204 -3.12362 -1.97356 6.50204 -3.12362 -1.97357 -8.30708e-012 -9.0191e-006 -5.27751e-005 1.53821 -4.06466 2.54766 -178.618 -3.67008 -69.3538 -0.247191 7.09916 58.1196 -36.2775 3.18055e-015 -6.36111e-015 -64.7348 -41.7641 -61.0119 -177.925 8.48747 76.2109 -25.7062 -9.45738 -62.8374 -105.154 1.59028e-015 6.36111e-015 -38.6898 47.1551 41.4507 -3.27921 14.4819 -165.523 -44.7379 -6.36111e-015 -9.54166e-015 7.63657 -1.38013 -1.75082 90 1.59028e-015 -1.27222e-014 11.0544 -10.4193 -176.372 -15.1012 -3.18056e-015 7.95139e-016 17.1815 -1.93354 -0.931812 90 -7.95139e-016 -3.18055e-015 
354.945 88.4725 122.428 -79.0908 -30.8574 -171.041 3.27641 -1.41599 -1.06312 6.52909 -2.88973 -2.04437 6.52909 -2.88973 -2.04438 -8.30907e-012 -9.0191e-006 -5.27751e-005 1.70352 -3.97437 2.50921 -178.624 -3.72968 -69.7256 1.16614 6.99958 58.8868 -32.6724 0 1.59028e-015 -63.7363 -41.8677 -60.0042 -177.951 8.55986 76.4863 -24.7442 -9.27208 -61.9143 -105.132 -7.95139e-016 -0 -38.6199 47.1498 41.4261 -3.2615 10.8869 -169.408 -46.1369 -3.18055e-015 1.59028e-015 7.61313 0.625611 -4.54664 90 3.18055e-015 6.36111e-015 11.3326 -7.25785 -176.599 -15.069 -6.36111e-015 -1.59028e-015 17.533 -2.39117 -0.115236 90 1.59028e-015 -0 
356.257 88.4991 122.65 -79.5977 -26.8688 -171.658 3.35206 -1.25837 -1.018 6.68377 -2.57346 -1.96125 6.68377 -2.57346 -1.96126 -8.30629e-012 -9.0191e-006 -5.27751e-005 1.5192 -3.68983 2.37198 -178.562 -3.91347 -69.8029 2.30222 7.28357 59.3692 -30.8858 0 -3.18055e-015 -62.4487 -41.8826 -58.5295 -177.972 8.60311 76.6849 -23.648 -8.83343 -61.0016 -105.217 3.18055e-015 -1.27222e-014 -39.0399 47.2048 41.9506 -4.4614 9.13356 -172.438 -47.4971 0 1.59028e-015 7.89284 1.04016 -4.41065 90 -1.59028e-015 3.18055e-015 11.8716 -4.17009 -176.598 -14.9053 6.36111e-015 1.39149e-015 17.7548 -2.79804 0.826246 90 -7.95139e-016 -3.18055e-015 
